<svg xmlns="http://www.w3.org/2000/svg" width="512" height="512" viewBox="0 0 512 512" fill="none">
  <style>
    :root {
    --color-primary: #5A8FCC;
    --color-secondary: #3D9974;
    --color-intersection: #4C94A0;
    --color-lock-strap: #1D1D1D;
    --color-lock-button: #8C9199;
    }
  </style>
  <path
    d="M 122 72 L 355 72 A 35 35 0 0 1 390 107 L 390 315 A 35 35 0 0 1 355 350 L 87 350 A 35 35 0 0 1 52 315 L 52 142 A 70 70 0 0 1 122 72 Z"
    fill="var(--color-primary)" />
  <path
    d="M 87 112 L 425 112 A 35 35 0 0 1 460 147 L 460 370 A 70 70 0 0 1 390 440 L 87 440 A 35 35 0 0 1 52 405 L 52 147 A 35 35 0 0 1 87 112 Z"
    fill="var(--color-secondary)" />
  <path
    d="M 87 112 L 390 112 L 390 315 A 35 35 0 0 1 355 350 L 87 350 A 35 35 0 0 1 52 315 L 52 147 A 35 35 0 0 1 87 112 Z"
    fill="var(--color-intersection)" />
  <g id="lock">
    <path d="M 460 216 L 390 216 A 30 30 0 0 0 360 246 L 360 266 A 30 30 0 0 0 390 296 L 460 296 Z" fill="var(--color-lock-strap)" />
    <circle cx="400" cy="256" r="22" fill="var(--color-lock-button)" />
  </g>
</svg>
