<svg xmlns="http://www.w3.org/2000/svg" width="512" height="512" viewBox="0 0 512 512" fill="none">
  <path
    d="M 122 72 L 355 72 A 35 35 0 0 1 390 107 L 390 315 A 35 35 0 0 1 355 350 L 87 350 A 35 35 0 0 1 52 315 L 52 142 A 70 70 0 0 1 122 72 Z"
    fill="#0052CC" />
  <path
    d="M 87 112 L 425 112 A 35 35 0 0 1 460 147 L 460 370 A 70 70 0 0 1 390 440 L 87 440 A 35 35 0 0 1 52 405 L 52 147 A 35 35 0 0 1 87 112 Z"
    fill="#006644" />
  <path
    d="M 87 112 L 390 112 L 390 315 A 35 35 0 0 1 355 350 L 87 350 A 35 35 0 0 1 52 315 L 52 147 A 35 35 0 0 1 87 112 Z"
    fill="#00538B" />
  <g id="lock">
    <path d="M 460 216 L 390 216 A 30 30 0 0 0 360 246 L 360 266 A 30 30 0 0 0 390 296 L 460 296 Z" fill="#F3F3F3" />
    <circle cx="400" cy="256" r="22" fill="#72777F" />
  </g>
</svg>
